<svg width="20" height="20" viewBox="0 0 20 20" fill="none" xmlns="http://www.w3.org/2000/svg">
<g clip-path="url(#clip0_18_773)">
<path d="M10.1331 1.46458C12.7415 1.00036 15.5273 1.77603 17.5428 3.7915C20.4552 6.70396 20.7787 11.2251 18.5131 14.4949L14.0288 17.759C12.7209 18.1514 11.3361 18.218 10.0021 17.9587L10.1331 1.46458Z" fill="#57545C"/>
<path d="M13.9146 16.0371V17.189C13.9146 18.0046 14.5758 18.6658 15.3913 18.6658H20C19.1844 18.6658 18.5232 18.0046 18.5232 17.189H18.5306V7.27786C18.5306 5.5011 17.0903 4.06079 15.3136 4.06079H14.6905L13.9146 16.0371Z" fill="#781900"/>
<path d="M18.5307 7.27787C18.5307 6.88795 18.4612 6.51432 18.3342 6.16846H14.554L14.4408 7.91451H18.5306L18.5307 7.27787Z" fill="#781900"/>
<path d="M18.5307 7.91455H14.4409L14.3236 9.72385H18.5307V7.91455Z" fill="#FF5023"/>
<path d="M15.3136 4.06079H14.6905L14.554 6.16849H18.3341C17.8822 4.93841 16.7004 4.06079 15.3136 4.06079Z" fill="#FF5023"/>
<path d="M18.5307 9.72382H14.3236L14.2032 11.581H18.5307V9.72382Z" fill="#781900"/>
<path d="M18.5307 14.9955H13.982L13.9146 16.0371V16.7161H18.5307V14.9955Z" fill="#FF5023"/>
<path d="M18.5232 17.1889H18.5307V16.7161H13.9146V17.1889C13.9146 18.0046 14.5758 18.6657 15.3913 18.6657H20C19.1844 18.6657 18.5232 18.0046 18.5232 17.1889Z" fill="#781900"/>
<path d="M18.5307 13.3003H14.0919L13.9821 14.9955H18.5307V13.3003Z" fill="#781900"/>
<path d="M18.5307 11.581H14.2033L14.0919 13.3003H18.5307V11.581Z" fill="#FF5023"/>
<path d="M8.38957 1.33423C13.023 1.33423 16.7791 5.0904 16.7791 9.7238C16.7791 14.3572 13.023 18.1134 8.38957 18.1134C3.75613 18.1134 0 14.3573 0 9.72384C0 6.18524 2.19074 3.15833 5.28996 1.92544C5.28996 1.92544 6.87332 1.33423 8.38957 1.33423Z" fill="#D7D5D9"/>
<path opacity="0.19" d="M13.4813 3.06628C14.5673 4.48046 15.2133 6.25027 15.2133 8.17117C15.2133 12.8046 11.4572 16.5607 6.82375 16.5607C4.90282 16.5607 3.13309 15.9147 1.71887 14.8287C3.25247 16.8257 5.66383 18.1134 8.37637 18.1134C13.0098 18.1134 16.7659 14.3572 16.7659 9.72378C16.7659 7.01125 15.4783 4.59988 13.4813 3.06628Z" fill="#57545C"/>
<path d="M9.13825 6.42695L8.38966 7.07422L7.64106 6.42695C7.30626 6.13746 7.09185 5.73316 7.04001 5.29363L6.77954 3.08511H9.99974L9.73927 5.29363C9.68751 5.7332 9.4731 6.13746 9.13825 6.42695Z" fill="#57545C"/>
<path d="M7.64103 13.0206L8.38962 12.3734L9.13821 13.0206C9.47302 13.3101 9.68743 13.7144 9.73927 14.154L9.99974 16.3625H6.77954L7.04001 14.154C7.09181 13.7144 7.30622 13.3101 7.64103 13.0206Z" fill="#57545C"/>
<path d="M5.09281 8.97524L5.74008 9.72383L5.09281 10.4724C4.80332 10.8072 4.39902 11.0216 3.95949 11.0735L1.75098 11.334V8.11368L3.95949 8.37415C4.39906 8.42598 4.80332 8.6404 5.09281 8.97524Z" fill="#57545C"/>
<path d="M11.7526 10.4724L11.1053 9.72379L11.7526 8.9752C12.0421 8.6404 12.4464 8.42598 12.8859 8.37415L15.0944 8.11368V11.3339L12.8859 11.0734C12.4464 11.0216 12.0421 10.8072 11.7526 10.4724Z" fill="#57545C"/>
<path d="M5.09269 8.97523C4.8032 8.64043 4.3989 8.42601 3.95937 8.37417L3.54304 8.32507C3.41507 8.76921 3.34656 9.23851 3.34656 9.72378C3.34656 10.2091 3.41511 10.6784 3.54304 11.1225L3.95937 11.0734C4.3989 11.0216 4.8032 10.8071 5.09269 10.4723L5.73996 9.72375L5.09269 8.97523Z" fill="#781900"/>
<path d="M7.641 13.0206C7.3062 13.3101 7.09178 13.7144 7.03995 14.154L6.99084 14.5703C7.43499 14.6983 7.90428 14.7668 8.38956 14.7668C8.87483 14.7668 9.3442 14.6983 9.78827 14.5703L9.73916 14.154C9.68733 13.7144 9.47292 13.3101 9.13811 13.0206L8.38952 12.3734L7.641 13.0206Z" fill="#781900"/>
<path d="M9.13811 6.42695C9.47292 6.13746 9.68733 5.73316 9.73917 5.29363L9.78827 4.8773C9.34413 4.74933 8.87483 4.68082 8.38956 4.68082C7.90428 4.68082 7.43495 4.74937 6.99084 4.8773L7.03995 5.29363C7.09178 5.73316 7.3062 6.13746 7.641 6.42695L8.38959 7.07422L9.13811 6.42695Z" fill="#781900"/>
<path d="M11.7525 10.4724C12.042 10.8072 12.4463 11.0216 12.8858 11.0735L13.3021 11.1226C13.4301 10.6784 13.4986 10.2091 13.4986 9.72388C13.4986 9.2386 13.4301 8.76927 13.3021 8.32516L12.8858 8.37427C12.4463 8.4261 12.042 8.64052 11.7525 8.97532L11.1052 9.72392L11.7525 10.4724Z" fill="#781900"/>
<path d="M8.38968 10.5767C8.86067 10.5767 9.24249 10.1949 9.24249 9.72394C9.24249 9.25294 8.86067 8.87112 8.38968 8.87112C7.91868 8.87112 7.53687 9.25294 7.53687 9.72394C7.53687 10.1949 7.91868 10.5767 8.38968 10.5767Z" fill="#57545C"/>
</g>
<defs>
<clipPath id="clip0_18_773">
<rect width="20" height="20" fill="white"/>
</clipPath>
</defs>
</svg>
