<svg width="18" height="18" viewBox="0 0 18 18" fill="none" xmlns="http://www.w3.org/2000/svg">
<g clip-path="url(#clip0_18_736)">
<path d="M17.3031 6.48935L17.2489 7.51475L16.7776 16.3319H1.22254L0.799818 8.42874L0.751268 7.51475L0.697021 6.48935H17.3031Z" fill="#E9E7C2"/>
<path d="M17.4088 16.3319L17.3489 17.363H0.651285L0.608465 16.629L0.591309 16.3319H17.4088Z" fill="#9B7453"/>
<path d="M4.4303 11.9278H2.22994L2.14697 10.0911H4.3743L4.4303 11.9278Z" fill="#AAD2D6"/>
<path d="M4.49654 14.1015H2.32814L2.24756 12.3181H4.44215L4.49654 14.1015Z" fill="#AAD2D6"/>
<path d="M7.19161 11.9278H4.99129L4.94214 10.0911H7.16943L7.19161 11.9278Z" fill="#AAD2D6"/>
<path d="M7.21782 14.1015H5.04942L5.00171 12.3181H7.1963L7.21782 14.1015Z" fill="#AAD2D6"/>
<path d="M9.95268 11.9278H7.75235L7.73706 10.0911H9.96435L9.95268 11.9278Z" fill="#AAD2D6"/>
<path d="M9.93889 14.1015H7.77045L7.75562 12.3181H9.95021L9.93889 14.1015Z" fill="#AAD2D6"/>
<path d="M13.8004 8.63754H13.3823C12.3539 8.63754 11.4979 9.52464 11.4804 10.595L11.3857 16.3637H15.3337L15.585 10.595C15.6316 9.52461 14.8288 8.63754 13.8004 8.63754Z" fill="#D06868"/>
<path d="M15.2688 17.3632H11.3464L11.3632 16.3311H15.3136L15.2688 17.3632Z" fill="#E0E0E0"/>
<path d="M18 7.51475H0L2.37639 2.9733H15.6236L16.3062 4.27861L18 7.51475Z" fill="#9B7453"/>
<path d="M8.84584 6.14377H3.67889L3.65892 5.56966L3.57036 2.9733L3.52466 1.64232L6.15526 0L8.06322 1.16532L8.84295 1.64232V2.9733L8.84584 6.14377Z" fill="#E9E7C2"/>
<path d="M5.55379 4.98582H4.64159L4.58569 2.97394H5.50956L5.55379 4.98582Z" fill="#AAD2D6"/>
<path d="M6.69855 4.98582H5.78636L5.74512 2.97394H6.66902L6.69855 4.98582Z" fill="#AAD2D6"/>
<path d="M7.84328 4.98582H6.93108L6.90454 2.97394H7.82845L7.84328 4.98582Z" fill="#AAD2D6"/>
<path d="M15.0205 12.5935C15.009 12.8786 14.7763 13.1089 14.5008 13.1089C14.2252 13.1089 14.0096 12.8786 14.0192 12.5935C14.0289 12.3074 14.2616 12.0746 14.539 12.0746C14.8165 12.0746 15.032 12.3074 15.0205 12.5935Z" fill="#E9E7C2"/>
<path opacity="0.1" d="M17.2488 7.51475H18L16.3062 4.27861L15.6236 2.9733H9V17.363H11.3465V17.3631H15.2689V17.363H17.3488L17.4087 16.3319H16.7775L17.2488 7.51475Z" fill="#040000"/>
</g>
<defs>
<clipPath id="clip0_18_736">
<rect width="18" height="18" fill="white"/>
</clipPath>
</defs>
</svg>
