<svg width="20" height="20" viewBox="0 0 20 20" fill="none" xmlns="http://www.w3.org/2000/svg">
<g clip-path="url(#clip0_18_800)">
<path d="M6.45885 4.16001C6.39713 4.22419 6.34679 4.29839 6.30996 4.37946L6.30552 4.37501L0.0744045 18.4117L0.0805156 18.4178C-0.03504 18.6417 0.158293 19.0972 0.554404 19.4939C0.950516 19.89 1.40607 20.0833 1.62996 19.9678L1.63552 19.9733L15.6722 13.7417L15.6677 13.7367C15.7494 13.6978 15.8244 13.6506 15.8872 13.5872C16.755 12.7195 15.3477 9.90557 12.745 7.30223C10.1411 4.6989 7.32718 3.29223 6.45885 4.16001Z" fill="#DD2E44"/>
<path d="M7.22218 6.66666L0.231071 18.0589L0.0744045 18.4117L0.0805156 18.4178C-0.03504 18.6417 0.158293 19.0972 0.554404 19.4939C0.683293 19.6228 0.817182 19.7205 0.948293 19.8033L9.4444 9.44443L7.22218 6.66666Z" fill="#EA596E"/>
<path d="M12.7844 7.25888C15.3788 9.85444 16.8194 12.6211 16.0005 13.4389C15.1822 14.2578 12.4155 12.8178 9.8194 10.2233C7.2244 7.62777 5.7844 4.86 6.60273 4.04166C7.42162 3.22333 10.1883 4.66333 12.7844 7.25888Z" fill="#A0041E"/>
<path d="M10.3277 7.56055C10.2711 7.60651 10.2058 7.64074 10.1358 7.66124C10.0658 7.68175 9.99245 7.68812 9.91995 7.68C9.43773 7.62777 9.03217 7.46 8.74828 7.195C8.44773 6.91444 8.2994 6.53777 8.33995 6.16055C8.41106 5.49833 9.07551 4.89055 10.2083 5.01277C10.6488 5.06 10.8455 4.91833 10.8522 4.85055C10.86 4.78333 10.6983 4.60277 10.2577 4.555C9.77551 4.50277 9.36995 4.335 9.08551 4.07C8.78495 3.78944 8.63606 3.41277 8.67717 3.03555C8.7494 2.37333 9.41328 1.76555 10.545 1.88833C10.8661 1.92277 11.0355 1.85666 11.1072 1.81388C11.1644 1.77888 11.1872 1.74555 11.1894 1.72611C11.1961 1.65889 11.0366 1.47833 10.5949 1.43055C10.5224 1.4228 10.4521 1.4008 10.388 1.36581C10.324 1.33082 10.2674 1.28353 10.2217 1.22665C10.176 1.16977 10.1419 1.10442 10.1215 1.03435C10.1011 0.964283 10.0947 0.890871 10.1027 0.818329C10.1104 0.745782 10.1323 0.675466 10.1673 0.611421C10.2022 0.547375 10.2495 0.490861 10.3063 0.445124C10.3631 0.399387 10.4284 0.365329 10.4985 0.344904C10.5685 0.32448 10.6419 0.318092 10.7144 0.326107C11.8461 0.447774 12.3661 1.18277 12.2944 1.84555C12.2222 2.50888 11.5583 3.11555 10.4255 2.99388C10.1044 2.95888 9.93662 3.02555 9.8644 3.06833C9.80717 3.10277 9.78384 3.13666 9.78162 3.15555C9.7744 3.22333 9.93495 3.40333 10.3766 3.45111C11.5083 3.57333 12.0283 4.30777 11.9566 4.97055C11.885 5.63277 11.2211 6.24055 10.0888 6.11777C9.76773 6.08333 9.59884 6.15 9.52662 6.19222C9.46884 6.22777 9.44662 6.26111 9.4444 6.28C9.43717 6.34722 9.59773 6.52777 10.0388 6.57555C10.1481 6.58734 10.2514 6.63125 10.3356 6.70174C10.4199 6.77223 10.4814 6.86612 10.5123 6.97155C10.5432 7.07698 10.5422 7.1892 10.5094 7.29404C10.4765 7.39889 10.4133 7.49163 10.3277 7.56055Z" fill="#AA8DD8"/>
<path d="M17.0339 12.6983C18.13 12.3889 18.8861 12.8778 19.0661 13.5195C19.2461 14.1606 18.8561 14.9722 17.7605 15.2806C17.3328 15.4006 17.2044 15.605 17.2217 15.67C17.2405 15.7356 17.4578 15.8433 17.8844 15.7228C18.98 15.4145 19.7361 15.9033 19.9161 16.5445C20.0972 17.1861 19.7061 17.9967 18.61 18.3056C18.1828 18.4256 18.0539 18.6306 18.0728 18.6956C18.0911 18.7606 18.3078 18.8683 18.735 18.7483C18.8059 18.7264 18.8804 18.7189 18.9542 18.7263C19.0281 18.7337 19.0997 18.7557 19.1648 18.7912C19.23 18.8267 19.2873 18.8749 19.3336 18.9329C19.3798 18.9909 19.4139 19.0576 19.434 19.1291C19.454 19.2005 19.4596 19.2752 19.4502 19.3488C19.4409 19.4224 19.417 19.4934 19.3798 19.5576C19.3426 19.6218 19.2929 19.6779 19.2337 19.7226C19.1745 19.7673 19.1069 19.7996 19.035 19.8178C17.94 20.1261 17.1833 19.6383 17.0022 18.9961C16.8222 18.355 17.2128 17.5445 18.3094 17.2356C18.7372 17.115 18.8655 16.9111 18.8467 16.8456C18.8289 16.7806 18.6122 16.6722 18.1855 16.7922C17.0889 17.1011 16.3333 16.6133 16.1528 15.9706C15.9722 15.3295 16.3628 14.5189 17.4589 14.2095C17.8855 14.09 18.0139 13.8845 17.9961 13.82C17.9772 13.7545 17.7611 13.6467 17.3339 13.7667C17.2625 13.7907 17.1869 13.8 17.1118 13.7939C17.0367 13.7879 16.9636 13.7666 16.897 13.7314C16.8304 13.6962 16.7716 13.6478 16.7243 13.5892C16.6769 13.5306 16.642 13.4629 16.6216 13.3904C16.6013 13.3178 16.5959 13.2419 16.6058 13.1672C16.6157 13.0925 16.6407 13.0206 16.6792 12.9559C16.7178 12.8911 16.7691 12.8349 16.8301 12.7907C16.891 12.7464 16.9604 12.715 17.0339 12.6983Z" fill="#77B255"/>
<path d="M12.7784 11.2C12.6633 11.1998 12.5512 11.164 12.4573 11.0974C12.3635 11.0309 12.2926 10.9368 12.2545 10.8283C12.2163 10.7198 12.2128 10.6021 12.2443 10.4914C12.2759 10.3808 12.3409 10.2827 12.4306 10.2106C12.5517 10.1133 15.4406 7.84445 19.5234 8.42834C19.5972 8.43669 19.6687 8.45978 19.7334 8.49624C19.7982 8.5327 19.855 8.58179 19.9005 8.6406C19.946 8.69941 19.9792 8.76674 19.9981 8.83862C20.0171 8.91049 20.0214 8.98544 20.0109 9.05902C20.0004 9.13261 19.9752 9.20333 19.9369 9.26701C19.8985 9.33069 19.8478 9.38602 19.7876 9.42973C19.7275 9.47344 19.6592 9.50464 19.5868 9.52148C19.5144 9.53833 19.4394 9.54047 19.3661 9.52778C15.7589 9.01556 13.1511 11.0578 13.1256 11.0783C13.0271 11.1572 12.9046 11.2001 12.7784 11.2Z" fill="#AA8DD8"/>
<path d="M3.19672 8.88888C3.11013 8.88888 3.02473 8.86865 2.94735 8.82978C2.86996 8.79092 2.80274 8.73451 2.75103 8.66505C2.69933 8.59558 2.66458 8.515 2.64955 8.42972C2.63453 8.34444 2.63964 8.25683 2.6645 8.17388C3.29394 6.07777 3.8645 2.73277 3.16338 1.86054C3.08505 1.76166 2.96672 1.66443 2.69561 1.68499C2.1745 1.72499 2.22394 2.82443 2.2245 2.83554C2.23155 2.90915 2.22385 2.98341 2.20183 3.054C2.17981 3.12458 2.14393 3.19006 2.09628 3.2466C2.04863 3.30313 1.99017 3.34959 1.92433 3.38324C1.8585 3.41689 1.78661 3.43707 1.71287 3.44258C1.63914 3.44808 1.56505 3.43882 1.49495 3.41533C1.42484 3.39183 1.36013 3.35458 1.3046 3.30575C1.24908 3.25693 1.20386 3.19751 1.1716 3.13098C1.13934 3.06445 1.12068 2.99215 1.11672 2.91832C1.0595 2.15221 1.29783 0.676656 2.61227 0.577211C3.19894 0.532767 3.68616 0.736656 4.03005 1.16443C5.34727 2.80388 4.01005 7.55666 3.72894 8.49332C3.69454 8.60771 3.62419 8.70796 3.52832 8.77921C3.43245 8.85047 3.31617 8.88892 3.19672 8.88888Z" fill="#77B255"/>
<path d="M14.1667 6.11112C14.6269 6.11112 15 5.73803 15 5.27779C15 4.81755 14.6269 4.44446 14.1667 4.44446C13.7065 4.44446 13.3334 4.81755 13.3334 5.27779C13.3334 5.73803 13.7065 6.11112 14.1667 6.11112Z" fill="#5C913B"/>
<path d="M1.11111 11.1111C1.72476 11.1111 2.22222 10.6136 2.22222 10C2.22222 9.38635 1.72476 8.88889 1.11111 8.88889C0.497461 8.88889 0 9.38635 0 10C0 10.6136 0.497461 11.1111 1.11111 11.1111Z" fill="#9266CC"/>
<path d="M18.0555 11.6667C18.5157 11.6667 18.8888 11.2936 18.8888 10.8333C18.8888 10.3731 18.5157 10 18.0555 10C17.5953 10 17.2222 10.3731 17.2222 10.8333C17.2222 11.2936 17.5953 11.6667 18.0555 11.6667Z" fill="#5C913B"/>
<path d="M13.0555 18.3333C13.5157 18.3333 13.8888 17.9602 13.8888 17.5C13.8888 17.0398 13.5157 16.6667 13.0555 16.6667C12.5953 16.6667 12.2222 17.0398 12.2222 17.5C12.2222 17.9602 12.5953 18.3333 13.0555 18.3333Z" fill="#5C913B"/>
<path d="M15.5556 3.33334C16.1692 3.33334 16.6667 2.83588 16.6667 2.22223C16.6667 1.60858 16.1692 1.11111 15.5556 1.11111C14.9419 1.11111 14.4445 1.60858 14.4445 2.22223C14.4445 2.83588 14.9419 3.33334 15.5556 3.33334Z" fill="#FFCC4D"/>
<path d="M18.0555 5.55555C18.5157 5.55555 18.8888 5.18246 18.8888 4.72222C18.8888 4.26198 18.5157 3.88889 18.0555 3.88889C17.5953 3.88889 17.2222 4.26198 17.2222 4.72222C17.2222 5.18246 17.5953 5.55555 18.0555 5.55555Z" fill="#FFCC4D"/>
<path d="M16.3889 7.77778C16.8491 7.77778 17.2222 7.40469 17.2222 6.94445C17.2222 6.48421 16.8491 6.11111 16.3889 6.11111C15.9286 6.11111 15.5555 6.48421 15.5555 6.94445C15.5555 7.40469 15.9286 7.77778 16.3889 7.77778Z" fill="#FFCC4D"/>
<path d="M4.16671 13.8889C4.62694 13.8889 5.00004 13.5158 5.00004 13.0556C5.00004 12.5953 4.62694 12.2222 4.16671 12.2222C3.70647 12.2222 3.33337 12.5953 3.33337 13.0556C3.33337 13.5158 3.70647 13.8889 4.16671 13.8889Z" fill="#FFCC4D"/>
</g>
<defs>
<clipPath id="clip0_18_800">
<rect width="20" height="20" fill="white"/>
</clipPath>
</defs>
</svg>
