<svg width="19" height="19" viewBox="0 0 19 19" fill="none" xmlns="http://www.w3.org/2000/svg">
<g clip-path="url(#clip0_18_762)">
<path d="M1.79678 8.80492C1.06969 8.56327 0.31604 9.03029 0.31604 9.74635V15.7664V15.835V18.099H17.8084L1.79678 8.80492Z" fill="#3C66B1"/>
<path d="M0.278931 16.6384V18.099H12.5082L10.5122 16.6384H0.278931Z" fill="#315591"/>
<path d="M10.5169 16.8952L0.446411 16.7668L0.453091 15.8041L10.5236 15.9324L10.5169 16.8952Z" fill="#315591"/>
<path d="M7.84354 1.56103L6.22339 3.3173L8.31428 7.98142L10.7209 7.37487C9.75887 6.5454 9.14278 3.46077 9.14278 3.46077L7.89401 1.51639L7.84354 1.56103Z" fill="#315591"/>
<path d="M1.97248 5.63728L6.26747 1.41899C6.77836 0.917236 7.6168 1.01606 7.98133 1.62105L8.55389 2.57123C7.9761 3.84653 8.1937 5.38828 9.22104 6.43431C9.84091 7.06543 10.6467 7.40479 11.4706 7.45337L12.1712 8.75138L12.8747 10.0551L13.3963 11.0216L14.1001 12.3257L14.8291 13.6766C14.945 13.8913 15.1385 14.0535 15.3701 14.1301L15.9338 14.3165C16.3579 14.4567 16.7924 14.5605 17.2298 14.6508C19.0929 15.0354 18.6627 18.1119 18.6627 18.1119H11.9252C11.3046 18.1119 10.71 17.8625 10.2752 17.4197L0.30835 7.27176L1.92357 5.68537L1.97248 5.63728Z" fill="#ACD4F3"/>
<path d="M12.3943 16.8588C11.7737 16.8588 11.1791 16.6094 10.7443 16.1666L1.1809 6.41599L0.30835 7.27299L10.2752 17.421C10.7101 17.8638 11.3046 18.1132 11.9252 18.1132H18.6628C18.6628 18.1132 18.7386 17.5707 18.6887 16.9129L12.3943 16.8588Z" fill="#4E8FE3"/>
<path d="M8.09396 11.807L12.3495 12.0193L11.1423 9.60463L5.68408 9.33224L8.09396 11.807Z" fill="#3C66B1"/>
<path d="M13.6734 14.1476H15.4262L15.3731 14.13C15.1415 14.0534 14.948 13.8912 14.8321 13.6766L14.1031 12.3257L13.3993 11.0216L12.8777 10.0551L12.1742 8.75134L11.4736 7.45333C10.8037 7.41385 10.1458 7.18206 9.59009 6.75757L10.6493 8.71468L13.6734 14.1476Z" fill="#ACD4F3"/>
<path d="M18.9358 16.3782C18.7523 15.1819 18.1863 14.4528 17.2987 14.2696C16.7848 14.1635 16.3948 14.063 16.0342 13.9438L15.8317 13.8768C15.8316 13.8768 15.8315 13.8767 15.8313 13.8767L15.4704 13.7573C15.3066 13.7032 15.1713 13.5898 15.0893 13.4379L11.7308 7.2147C11.6844 7.12857 11.5967 7.07269 11.499 7.06686C11.2601 7.0528 11.0261 7.01186 10.8006 6.94652C10.1007 6.2761 9.64077 4.18261 9.52076 3.41716C9.51471 3.37838 9.50058 3.34123 9.47939 3.30824L8.23062 1.36379C8.23025 1.36323 8.2298 1.36272 8.22943 1.36212C8.01212 1.00736 7.65071 0.773939 7.23605 0.721392C6.81045 0.667472 6.38955 0.810157 6.08129 1.1129L1.78626 5.33122C1.77798 5.33935 1.77034 5.34781 1.76325 5.35672C1.75423 5.36365 1.74558 5.37115 1.73731 5.37931L0.122127 6.96566C0.0686893 7.01814 0.0382597 7.08968 0.0376288 7.16461C0.0369609 7.23949 0.0660546 7.31156 0.118527 7.365L1.1233 8.38803C0.909363 8.42399 0.705448 8.50626 0.528845 8.63365C0.192746 8.87609 0 9.24826 0 9.65472V15.6748C0 15.6865 0.000890623 15.6978 0.00230078 15.7091C0.000890623 15.7203 0 15.7317 0 15.7434V18.0073C0 18.1633 0.126431 18.2897 0.282402 18.2897H11.9369H17.7748H18.6744C18.8153 18.2897 18.9346 18.1859 18.9541 18.0464C18.9587 18.0133 19.0659 17.2265 18.9358 16.3782ZM6.38781 9.65008L10.9718 9.87885L11.9961 11.719L8.21889 11.5305L6.38781 9.65008ZM4.63187 7.84686C4.58708 7.612 4.47405 6.77678 5.00326 6.25699L8.02103 3.2931C7.95278 3.70016 7.95096 4.117 8.0185 4.52973C8.14271 5.28862 8.49295 5.97945 9.03125 6.52759C9.10428 6.60195 9.18032 6.67276 9.25877 6.74022C9.26222 6.74835 9.26601 6.7564 9.27027 6.76431L10.3995 8.85078L10.648 9.29717L5.80902 9.05566L4.63187 7.84686ZM12.5872 9.9907L12.2604 11.0325L11.9087 10.4007L12.2473 9.36085L12.5872 9.9907ZM11.5339 9.72745L11.1238 8.99072C11.1313 8.99395 11.1389 8.99721 11.1464 9.00044C11.3418 9.08449 11.5374 9.16836 11.6849 9.231C11.6881 9.23241 11.691 9.23364 11.6943 9.23501L11.5339 9.72745ZM12.9616 10.6843L13.2502 11.2192L12.9309 12.2371L12.639 11.7127L12.9616 10.6843ZM14.031 12.666L13.4159 12.5781L13.6246 11.9129L14.031 12.666ZM14.3646 13.2842L14.5924 13.7061C14.6224 13.7617 14.6564 13.8143 14.6938 13.864H13.8365L13.4403 13.1522L14.3646 13.2842ZM11.8768 8.67436L11.8698 8.69585C11.5649 8.56604 11.0617 8.34925 10.6812 8.1847L10.2242 7.34017C10.3326 7.38622 10.4434 7.42667 10.556 7.4623C10.5694 7.46753 10.5831 7.47165 10.5969 7.47477C10.8268 7.54461 11.0642 7.59333 11.3067 7.61797L11.8768 8.67436ZM9.81367 6.45975C9.67955 6.36112 9.55231 6.25205 9.43422 6.13182C8.63055 5.31352 8.3451 4.151 8.64921 3.0608L8.97247 3.56411C9.0265 3.88678 9.29391 5.36874 9.81367 6.45975ZM6.47702 1.51587C6.66119 1.33499 6.9119 1.24964 7.16503 1.28174C7.41058 1.31284 7.62414 1.45152 7.75109 1.66219L8.17091 2.3588C8.16019 2.36671 8.14968 2.37513 8.13989 2.38478L4.60749 5.85413C4.18708 6.26704 4.05419 6.79337 4.02903 7.22792L2.38264 5.53722L6.47702 1.51587ZM1.97971 5.93291L11.1162 15.3152C11.6017 15.8139 12.2795 16.0999 12.9755 16.0999H15.7562C15.9121 16.0999 16.0386 15.9735 16.0386 15.8175C16.0386 15.6615 15.9121 15.5351 15.7562 15.5351H12.9755C12.4309 15.5351 11.9007 15.3114 11.5208 14.9212L8.79776 12.1249L12.3199 12.3006L13.4238 14.2838C13.4736 14.3733 13.5681 14.4289 13.6705 14.4289H15.702L15.8569 14.4801C16.239 14.6064 16.6484 14.7121 17.1845 14.8228C17.9994 14.991 18.2969 15.8135 18.3932 16.5752H12.3943C11.853 16.5752 11.325 16.3537 10.9456 15.9675L1.52694 6.37755L1.97971 5.93291ZM0.564804 9.65472C0.564804 9.42865 0.669378 9.22874 0.859266 9.09173C1.08578 8.92834 1.39041 8.88703 1.67407 8.98129C1.68792 8.98589 1.70191 8.98901 1.71586 8.99139L2.34991 9.63698V14.2118C2.34991 14.7036 2.62322 15.1158 2.91048 15.4136L0.564841 15.3947L0.564804 9.65472ZM3.80786 15.4209C3.52872 15.2489 2.91471 14.7569 2.91471 14.2118V10.212L8.06433 15.4553L3.80786 15.4209ZM0.564804 17.7249V17.1577H8.61192C8.76789 17.1577 8.89432 17.0313 8.89432 16.8753C8.89432 16.7193 8.76789 16.5929 8.61192 16.5929H0.564804V15.9595L8.6235 16.0246L10.0853 17.513C10.1599 17.5889 10.2394 17.6592 10.3223 17.7249L0.564804 17.7249ZM18.4179 17.7249H17.7747H11.9368C11.3955 17.7249 10.8675 17.5034 10.4882 17.1172L9.0232 15.6256C8.99574 15.566 8.94828 15.5177 8.88916 15.4892L0.719364 7.17069L1.124 6.77329L10.5427 16.3632C11.0275 16.8568 11.7024 17.14 12.3943 17.14H18.433C18.4377 17.3729 18.4285 17.5774 18.4179 17.7249Z" fill="black"/>
</g>
<defs>
<clipPath id="clip0_18_762">
<rect width="19" height="19" fill="white"/>
</clipPath>
</defs>
</svg>
